<mxfile host="Electron" modified="2023-12-06T12:10:34.259Z" agent="Mozilla/5.0 (Windows NT 10.0; Win64; x64) AppleWebKit/537.36 (KHTML, like Gecko) draw.io/22.1.2 Chrome/114.0.5735.289 Electron/25.9.4 Safari/537.36" etag="Qfje_Uyzacd3n8cMLBAJ" version="22.1.2" type="device">
  <diagram name="Page-1" id="7e0a89b8-554c-2b80-1dc8-d5c74ca68de4">
    <mxGraphModel dx="592" dy="346" grid="1" gridSize="10" guides="1" tooltips="1" connect="1" arrows="1" fold="1" page="1" pageScale="1" pageWidth="1100" pageHeight="850" background="none" math="0" shadow="0">
      <root>
        <mxCell id="0" />
        <mxCell id="1" parent="0" />
        <mxCell id="AS17IYQjp-yT22KlrgBZ-13" value="" style="group;rotation=45;" vertex="1" connectable="0" parent="1">
          <mxGeometry x="180" y="160" width="120" height="120" as="geometry" />
        </mxCell>
        <mxCell id="AS17IYQjp-yT22KlrgBZ-9" value="" style="pointerEvents=1;verticalLabelPosition=bottom;shadow=0;dashed=0;align=center;html=1;verticalAlign=top;shape=mxgraph.electrical.resistors.resistor_1;rotation=45;" vertex="1" parent="AS17IYQjp-yT22KlrgBZ-13">
          <mxGeometry x="45" y="15" width="100" height="20" as="geometry" />
        </mxCell>
        <mxCell id="AS17IYQjp-yT22KlrgBZ-10" value="" style="pointerEvents=1;verticalLabelPosition=bottom;shadow=0;dashed=0;align=center;html=1;verticalAlign=top;shape=mxgraph.electrical.resistors.resistor_1;rotation=135;" vertex="1" parent="AS17IYQjp-yT22KlrgBZ-13">
          <mxGeometry x="-25" y="15" width="100" height="20" as="geometry" />
        </mxCell>
        <mxCell id="AS17IYQjp-yT22KlrgBZ-11" value="" style="pointerEvents=1;verticalLabelPosition=bottom;shadow=0;dashed=0;align=center;html=1;verticalAlign=top;shape=mxgraph.electrical.resistors.resistor_1;rotation=135;" vertex="1" parent="AS17IYQjp-yT22KlrgBZ-13">
          <mxGeometry x="45" y="85" width="100" height="20" as="geometry" />
        </mxCell>
        <mxCell id="AS17IYQjp-yT22KlrgBZ-12" value="" style="pointerEvents=1;verticalLabelPosition=bottom;shadow=0;dashed=0;align=center;html=1;verticalAlign=top;shape=mxgraph.electrical.resistors.resistor_1;rotation=45;" vertex="1" parent="AS17IYQjp-yT22KlrgBZ-13">
          <mxGeometry x="-25" y="85" width="100" height="20" as="geometry" />
        </mxCell>
      </root>
    </mxGraphModel>
  </diagram>
</mxfile>
